<svg width="400" height="400" viewBox="0 0 400 400" fill="none" xmlns="http://www.w3.org/2000/svg">
<path d="M0 9.99999C0 4.47714 4.47715 0 10 0H390C395.523 0 400 4.47715 400 10V390C400 395.523 395.523 400 390 400H9.99999C4.47714 400 0 395.523 0 390V9.99999Z" fill="#17181C"/>
<path d="M30.4414 260.5H114.441C119.575 276.367 130.075 289.433 145.941 299.7C162.275 309.5 183.508 314.4 209.641 314.4C227.375 314.4 241.141 312.767 250.941 309.5C260.741 306.233 267.508 301.567 271.241 295.5C274.975 288.967 276.841 281.733 276.841 273.8C276.841 264 273.808 256.533 267.741 251.4C261.675 245.8 252.341 241.367 239.741 238.1C227.141 234.833 211.041 231.8 191.441 229C171.841 225.733 152.941 221.767 134.741 217.1C116.541 212.433 100.441 206.367 86.4414 198.9C72.4414 190.967 61.2414 181.167 52.8414 169.5C44.9081 157.367 40.9414 142.667 40.9414 125.4C40.9414 108.6 44.9081 93.6666 52.8414 80.6C61.2414 67.5333 72.6747 56.5667 87.1414 47.7C102.075 38.8333 119.341 32.0666 138.941 27.4C159.008 22.7333 180.475 20.4 203.341 20.4C237.875 20.4 266.575 25.5333 289.441 35.8C312.308 45.6 329.341 59.6 340.541 77.8C352.208 95.5333 358.041 116.067 358.041 139.4H277.541C273.808 122.133 266.341 109.767 255.141 102.3C243.941 94.3667 226.675 90.4 203.341 90.4C180.475 90.4 163.208 93.9 151.541 100.9C139.875 107.9 134.041 117.467 134.041 129.6C134.041 139.4 137.541 147.1 144.541 152.7C152.008 157.833 162.741 162.033 176.741 165.3C191.208 168.567 209.175 172.067 230.641 175.8C248.841 179.533 266.108 183.733 282.441 188.4C299.241 193.067 314.175 199.133 327.241 206.6C340.308 213.6 350.575 223.167 358.041 235.3C365.975 246.967 369.941 261.9 369.941 280.1C369.941 302.5 363.408 321.4 350.341 336.8C337.741 352.2 319.541 364.1 295.741 372.5C271.941 380.433 243.475 384.4 210.341 384.4C180.941 384.4 155.508 381.367 134.041 375.3C113.041 368.767 95.5414 360.6 81.5414 350.8C67.5414 340.533 56.5747 329.8 48.6414 318.6C41.1747 306.933 36.0414 295.967 33.2414 285.7C30.4414 275.433 29.5081 267.033 30.4414 260.5Z" fill="#EAEAEA"/>
</svg>
