<svg width="954" height="73" viewBox="0 0 954 73" fill="none" xmlns="http://www.w3.org/2000/svg">
<path d="M0.292676 45.325H28.9577C29.4477 46.795 30.8827 48.055 33.2627 49.105C35.6427 50.085 38.8277 50.855 42.8177 51.415C46.8777 51.905 51.5677 52.15 56.8877 52.15C62.1377 52.15 66.2677 52.01 69.2777 51.73C72.3577 51.38 74.5277 50.82 75.7877 50.05C77.0477 49.21 77.6777 48.09 77.6777 46.69C77.6777 45.36 76.6627 44.345 74.6327 43.645C72.6027 42.875 68.9977 42.35 63.8177 42.07C58.6377 41.79 51.3577 41.65 41.9777 41.65C34.9777 41.65 28.9227 41.335 23.8127 40.705C18.7727 40.005 14.6077 38.955 11.3177 37.555C8.09768 36.085 5.71768 34.265 4.17768 32.095C2.63768 29.855 1.86768 27.195 1.86768 24.115C1.86768 18.795 3.65268 14.42 7.22268 10.99C10.8627 7.49 16.3227 4.9 23.6027 3.22C30.9527 1.47 40.1227 0.594999 51.1127 0.594999C67.2127 0.594999 79.4977 2.94 87.9677 7.63C96.5077 12.25 100.778 18.935 100.778 27.685H73.5827C73.2327 25.375 71.0627 23.625 67.0727 22.435C63.0827 21.175 57.4127 20.545 50.0627 20.545C42.7827 20.545 37.3577 20.965 33.7877 21.805C30.2877 22.645 28.5377 24.08 28.5377 26.11C28.5377 27.16 29.0277 28 30.0077 28.63C30.9877 29.26 32.6677 29.785 35.0477 30.205C37.4977 30.555 40.9277 30.8 45.3377 30.94C49.7477 31.08 55.3477 31.15 62.1377 31.15C69.6277 31.15 75.9977 31.535 81.2477 32.305C86.4977 33.005 90.7327 34.09 93.9527 35.56C97.2427 37.03 99.6227 38.92 101.093 41.23C102.563 43.47 103.298 46.13 103.298 49.21C103.298 54.53 101.618 58.87 98.2577 62.23C94.8977 65.59 89.5777 68.075 82.2977 69.685C75.0177 71.295 65.4977 72.1 53.7377 72.1C47.0877 72.1 40.9627 71.715 35.3627 70.945C29.8327 70.175 24.8977 69.055 20.5577 67.585C16.2177 66.045 12.5427 64.19 9.53268 62.02C6.52268 59.78 4.21268 57.295 2.60268 54.565C1.06268 51.765 0.292676 48.685 0.292676 45.325ZM128.854 59.815V44.065H200.674V59.815H128.854ZM105.334 70L150.379 2.8H179.569L225.034 70H196.159L157.204 9.835H172.849L134.209 70H105.334ZM259.7 2.8V50.05H320.915V70H233.45V2.8H259.7ZM367.993 70L327.253 2.8H356.863L391.618 67.375H380.908L415.663 2.8H444.853L404.533 70H367.993ZM457.389 59.815V44.065H529.209V59.815H457.389ZM433.869 70L478.914 2.8H508.104L553.569 70H524.694L485.739 9.835H501.384L462.744 70H433.869ZM637.585 2.8C647.035 2.8 654.84 3.71 661 5.53C667.16 7.35 671.99 9.835 675.49 12.985C678.99 16.135 681.44 19.74 682.84 23.8C684.31 27.79 685.045 31.99 685.045 36.4C685.045 40.81 684.24 45.045 682.63 49.105C681.02 53.095 678.36 56.665 674.65 59.815C671.01 62.965 666.145 65.45 660.055 67.27C654.035 69.09 646.545 70 637.585 70H561.985V2.8H637.585ZM588.235 49H636.535C640.455 49 643.78 48.755 646.51 48.265C649.24 47.705 651.41 46.9 653.02 45.85C654.7 44.8 655.89 43.505 656.59 41.965C657.36 40.355 657.745 38.5 657.745 36.4C657.745 34.3 657.36 32.48 656.59 30.94C655.89 29.33 654.7 28 653.02 26.95C651.41 25.9 649.24 25.13 646.51 24.64C643.78 24.08 640.455 23.8 636.535 23.8H588.235V49ZM761.145 72.1C745.885 72.1 733.6 70.77 724.29 68.11C714.98 65.38 708.19 61.39 703.92 56.14C699.72 50.82 697.62 44.24 697.62 36.4C697.62 28.56 699.72 22.015 703.92 16.765C708.19 11.445 714.98 7.455 724.29 4.79499C733.6 2.065 745.885 0.699997 761.145 0.699997C776.405 0.699997 788.69 2.065 798 4.79499C807.31 7.455 814.065 11.445 818.265 16.765C822.535 22.015 824.67 28.56 824.67 36.4C824.67 44.24 822.535 50.82 818.265 56.14C814.065 61.39 807.31 65.38 798 68.11C788.69 70.77 776.405 72.1 761.145 72.1ZM761.145 52.15C768.355 52.15 774.585 51.73 779.835 50.89C785.085 49.98 789.145 48.405 792.015 46.165C794.885 43.855 796.32 40.6 796.32 36.4C796.32 32.2 794.885 28.98 792.015 26.74C789.145 24.43 785.085 22.855 779.835 22.015C774.585 21.105 768.355 20.65 761.145 20.65C753.935 20.65 747.6 21.105 742.14 22.015C736.75 22.855 732.515 24.43 729.435 26.74C726.425 28.98 724.92 32.2 724.92 36.4C724.92 40.6 726.425 43.855 729.435 46.165C732.515 48.405 736.75 49.98 742.14 50.89C747.6 51.73 753.935 52.15 761.145 52.15ZM838.328 70V2.8H919.493C925.863 2.8 931.568 3.535 936.608 5.005C941.718 6.405 945.743 8.785 948.683 12.145C951.693 15.505 953.198 20.09 953.198 25.9C953.198 29.75 952.498 32.935 951.098 35.455C949.698 37.975 947.773 39.935 945.323 41.335C942.873 42.735 940.073 43.75 936.923 44.38C933.773 45.01 930.483 45.395 927.053 45.535L919.388 44.065C927.718 44.135 934.123 44.485 938.603 45.115C943.153 45.745 946.303 46.9 948.053 48.58C949.873 50.19 950.783 52.535 950.783 55.615V70H924.533V58.765C924.533 56.665 924.113 55.09 923.273 54.04C922.503 52.92 920.753 52.15 918.023 51.73C915.363 51.31 911.233 51.1 905.633 51.1H864.578V70H838.328ZM864.578 33.565H919.493C921.593 33.565 923.343 33.215 924.743 32.515C926.213 31.815 926.948 30.485 926.948 28.525C926.948 26.705 926.213 25.48 924.743 24.85C923.343 24.15 921.593 23.8 919.493 23.8H864.578V33.565Z" fill="white"/>
</svg>
